<svg width="41" height="40" fill="none" xmlns="http://www.w3.org/2000/svg"><path clip-rule="evenodd" d="M20.184 25.196l-4.937 2.705a.823.823 0 01-1.097-.328v0a.87.87 0 01-.1-.388V15.2c0-2.286 1.562-3.2 3.81-3.2h5.28c2.18 0 3.81.854 3.81 3.048v12.137a.815.815 0 01-.816.815.9.9 0 01-.396-.099l-4.968-2.705a.617.617 0 00-.586 0z" stroke="url(#paint0_linear)" stroke-width="2" stroke-linecap="round" stroke-linejoin="round"/><path d="M18.131 17.448h4.692" stroke="url(#paint1_linear)" stroke-width="2" stroke-linecap="round" stroke-linejoin="round"/><defs><linearGradient id="paint0_linear" x1="17.23" y1="15.164" x2="26.484" y2="21.422" gradientUnits="userSpaceOnUse"><stop stop-color="#FF637B"/><stop offset="1" stop-color="#F90217"/></linearGradient><linearGradient id="paint1_linear" x1="19.288" y1="17.217" x2="19.465" y2="18.133" gradientUnits="userSpaceOnUse"><stop stop-color="#FF637B"/><stop offset="1" stop-color="#F90217"/></linearGradient></defs></svg>