<svg width="184" height="44" viewBox="0 0 184 44" fill="none" xmlns="http://www.w3.org/2000/svg">
<g clip-path="url(#clip0)">
<path d="M130.613 22.5094L130.615 0.120264H134.142V16.6956L149.707 0.102539L152.484 0.104755V22.5094H148.94L148.904 5.98953L133.39 22.5094H130.613Z" fill="#1A1A18"/>
<path d="M179.593 22.5095L179.595 3.24888H168.05V22.4962L164.51 22.5095L164.514 0.0893555H183.093V22.4985L179.593 22.5095Z" fill="#1A1A18"/>
<path d="M70.3118 22.5096L63.5329 13.8686L56.7135 22.5096H52.138L61.4421 11.2918L52.1493 0.109375H56.7158L63.5577 8.6773L70.3906 0.109375H74.9256L65.644 11.2984L74.9458 22.5096H70.3118Z" fill="#1A1A18"/>
<path d="M0.0523071 22.5099L8.55292 0.109619H12.0481L20.4947 22.5099H16.6687L14.0152 14.9013H6.60163L3.90088 22.5187L0.0523071 22.5099ZM12.9101 11.7041L10.3152 4.41463C9.41491 6.93604 8.57768 9.30679 7.72469 11.7041H12.9101Z" fill="#1A1A18"/>
<path d="M30.2327 22.5096C30.2327 22.5096 30.2327 8.0968 30.2327 1.53182V0.109375H33.1068C35.1098 0.109375 36.9869 0.109375 39.0777 0.552505C42.6382 1.31691 44.1303 4.44762 43.804 7.76224C43.4777 11.1433 41.3013 13.339 37.8241 13.8664C36.9688 13.9949 36.0956 14.0192 35.2291 14.068C34.7497 14.0946 34.2681 14.068 33.7302 14.068V22.5052L30.2327 22.5096ZM33.7595 10.8686C33.7595 10.8686 36.3544 10.9705 37.5855 10.5119C38.8864 10.0311 39.7506 9.16253 39.9487 7.77553C40.1467 6.38853 39.8879 5.07687 38.6523 4.17288C37.1737 3.09386 33.7527 3.28662 33.7527 3.28662L33.7595 10.8686Z" fill="#1A1A18"/>
<path d="M111.773 22.5095L111.777 3.26431H107.128V0.0981445H119.846V3.2488H115.315V22.4962L111.773 22.5095Z" fill="#1A1A18"/>
<path d="M88.8097 9.66991H93.779V12.9025H88.8029V19.3435H95.8766V22.514H85.2379V0.109375H95.1654V3.2556H88.8097V9.66991Z" fill="#1A1A18"/>
<path d="M37.8961 39.2353H42.116L40.0071 34.5293L37.8961 39.2353Z" fill="#1A1A18"/>
<path d="M27.5724 37.4984H30.2327L28.8981 34.6335L27.5724 37.4984Z" fill="#1A1A18"/>
<path d="M81.6977 34.6335C81.4164 34.8396 81.2588 35.1741 81.2791 35.5198C81.2656 35.8721 81.4366 36.2044 81.7292 36.406C82.0803 36.6298 82.4944 36.7384 82.9108 36.7184H84.8643V34.3255H82.8883C82.4674 34.2989 82.051 34.4053 81.6977 34.6335Z" fill="#1A1A18"/>
<path d="M0 29.1343V43.6357H91.5465V32.3846H183.093V29.1343H0ZM10.4992 40.341L9.71595 38.6128H6.06094L5.26421 40.341H3.87333L7.27402 33.1225H8.53437L11.9283 40.341H10.4992ZM20.726 40.341L17.6989 37.2724H16.8167V40.341H15.4663V33.1801H16.8167V36.1579H17.6652L20.5707 33.1801H22.2812L18.759 36.6387L22.4702 40.341H20.726ZM31.5133 40.341L30.73 38.6128H27.075L26.2806 40.341H24.8874L28.2904 33.1225H29.5485L32.9492 40.3344L31.5133 40.341ZM44.3238 41.8145H43.0432V40.341H37.0138V41.8145H35.7332V39.1956H36.4939L39.3094 33.1225H40.7363L43.5429 39.1889H44.3148L44.3238 41.8145ZM53.6774 40.341H47.8911V33.1801H53.6212V34.3056H49.2482V36.1579H53.126V37.3034H49.2482V39.2155H53.6774V40.341ZM65.0949 40.341H63.7445V35.2052L61.3048 38.5818H61.2598L58.8404 35.2251V40.341H57.5057V33.1801H58.9506L61.3048 36.5656L63.6567 33.1801H65.1016L65.0949 40.341ZM76.0284 40.341H74.678V35.1653L70.4806 40.341H69.299V33.1801H70.6494V38.2185L74.7208 33.1801H76.0239L76.0284 40.341ZM86.2215 40.341H84.8711V37.844H83.2507L81.2859 40.341H79.6497L81.7923 37.6823C81.5289 37.618 81.2746 37.5205 81.036 37.3942C80.8132 37.2812 80.6107 37.1306 80.4396 36.9511C80.2731 36.7672 80.1403 36.5567 80.048 36.3263C79.949 36.0781 79.8995 35.8123 79.904 35.5442V35.5331C79.8972 35.1808 79.9737 34.8329 80.129 34.5161C80.2753 34.2281 80.4914 33.9755 80.7547 33.7849C81.0473 33.5767 81.3804 33.426 81.7315 33.3418C82.1501 33.2377 82.58 33.1889 83.0121 33.1934H86.2215V40.341Z" fill="#1A1A18"/>
<path d="M6.55609 37.4984H9.21858L7.88171 34.6335L6.55609 37.4984Z" fill="#1A1A18"/>
</g>
<defs>
<clipPath id="clip0">
<rect width="183.093" height="43.5464" fill="white" transform="translate(0 0.0893555)"/>
</clipPath>
</defs>
</svg>
