<svg width="40" height="40" fill="none" xmlns="http://www.w3.org/2000/svg"><path d="M20 17.333c-1.39 0-2.518 1.194-2.518 2.667 0 1.473 1.127 2.667 2.518 2.667 1.391 0 2.518-1.194 2.518-2.667 0-1.473-1.127-2.667-2.518-2.667z" fill="#1A1A18"/><path fill-rule="evenodd" clip-rule="evenodd" d="M16.978 12c-2.504 0-4.534 2.149-4.534 4.8v6.4c0 2.651 2.03 4.8 4.534 4.8h6.044c2.504 0 4.534-2.149 4.534-4.8v-6.4c0-2.651-2.03-4.8-4.534-4.8h-6.044zm-.504 8c0-2.062 1.579-3.733 3.526-3.733 1.947 0 3.526 1.671 3.526 3.733 0 2.062-1.579 3.733-3.526 3.733-1.947 0-3.526-1.671-3.526-3.733zm7.052-3.733h1.007V15.2h-1.007v1.067z" fill="#1A1A18"/></svg>