<svg width="40" height="40" fill="none" xmlns="http://www.w3.org/2000/svg"><path d="M28.692 12.575a.611.611 0 00-.39-.541.56.56 0 00-.622.17c-.402.473-.91.793-1.425.94A3.883 3.883 0 0023.517 12c-2.271 0-4.11 1.952-4.11 4.358v.542c-3.478-.285-5.337-3.082-5.839-4.5a.585.585 0 00-.514-.4.577.577 0 00-.55.34c-1.217 2.581-1.404 5.084-.52 7.215.775 1.867 2.332 3.354 4.54 4.34-1.003.753-2.692 1.643-4.66 1.643a.586.586 0 00-.557.437c-.074.26.02.54.233.69C13.428 28 15.407 28 17.247 28h.056c5.65 0 10.23-4.857 10.23-10.846v-.589c.422-.454.75-.92.952-1.521.225-.672.27-1.45.207-2.47z" fill="#1A1A18"/></svg>