<svg width="40" height="41" fill="none" xmlns="http://www.w3.org/2000/svg"><g clip-path="url(#clip0)" fill="#000"><path d="M28.011 15.126h-6.943v-1.6a.532.532 0 00-.632-.524l-8.546 1.6a.532.532 0 00-.435.524v11.733c0 .256.182.476.435.523l8.546 1.6a.533.533 0 00.632-.524v-1.6h6.943a.534.534 0 00.535-.533V15.66a.534.534 0 00-.535-.533zM18.8 22.775a.532.532 0 01-.401.884.533.533 0 01-.402-.183l-1.553-1.771-1.362 1.75a.537.537 0 01-.75.092.534.534 0 01-.094-.749l1.49-1.911-1.47-1.677a.534.534 0 01.804-.702l1.334 1.521L17.977 18a.535.535 0 01.75-.093c.233.18.274.515.092.748l-1.709 2.193 1.69 1.927zm8.678 3.017h-6.409v-1.067h1.602a.534.534 0 100-1.066h-1.602v-1.067h1.602a.534.534 0 100-1.066h-1.602v-1.067h1.602a.534.534 0 100-1.067h-1.602v-1.066h1.602a.534.534 0 100-1.067h-1.602v-1.067h6.41v9.6z"/><path d="M25.875 17.259h-1.068a.534.534 0 100 1.067h1.068a.534.534 0 100-1.067zM25.875 19.392h-1.068a.534.534 0 100 1.067h1.068a.534.534 0 100-1.067zM25.875 21.525h-1.068a.534.534 0 100 1.067h1.068a.534.534 0 100-1.067zM25.875 23.659h-1.068a.534.534 0 100 1.066h1.068a.534.534 0 100-1.067z"/></g><defs><clipPath id="clip0"><path fill="#fff" transform="translate(11.455 12.992)" d="M0 0h17.091v16H0z"/></clipPath></defs></svg>