<svg width="40" height="41" fill="none" xmlns="http://www.w3.org/2000/svg"><path d="M15.497 20.373h-3.26a.237.237 0 00-.237.237v1.755c0 .13.106.237.237.237h3.26a.237.237 0 00.237-.237V20.61a.237.237 0 00-.237-.237zm-.695 1.616h-.941a.469.469 0 010-.938h.941a.469.469 0 010 .938zM15.497 17.348h-3.26a.237.237 0 00-.237.237v1.613c0 .13.106.237.237.237h3.26a.237.237 0 00.237-.237v-1.613a.237.237 0 00-.237-.237zm-.695 1.512h-.941a.469.469 0 010-.937h.941a.469.469 0 010 .937zM19.294 23.54h-2.385a.237.237 0 00-.237.237v2.727c0 .131.106.238.237.238h2.385a.237.237 0 00.237-.238v-2.727a.237.237 0 00-.237-.237zM19.294 20.373h-2.385a.237.237 0 00-.237.237v1.755c0 .13.106.237.237.237h2.385a.237.237 0 00.237-.237V20.61a.237.237 0 00-.237-.237zM19.294 17.348h-2.385a.237.237 0 00-.237.237v1.613c0 .13.106.237.237.237h2.385a.237.237 0 00.237-.237v-1.613a.237.237 0 00-.237-.237zM23.048 23.54h-2.342a.237.237 0 00-.237.237v2.727c0 .131.106.238.237.238h2.342a.237.237 0 00.238-.238v-2.727a.237.237 0 00-.238-.237zM27.763 17.348H24.46a.237.237 0 00-.237.237v1.613c0 .13.106.237.238.237h3.302a.237.237 0 00.237-.237v-1.613a.237.237 0 00-.237-.237zM23.048 17.348h-2.342a.237.237 0 00-.237.237v1.613c0 .13.106.237.237.237h2.342a.237.237 0 00.238-.237v-1.613a.237.237 0 00-.238-.237zM19.294 13.303h-2.385a.237.237 0 00-.237.237v2.633c0 .131.106.237.237.237h2.385a.237.237 0 00.237-.237v-2.632a.237.237 0 00-.237-.238zm-.722 2.507h-.941a.469.469 0 010-.937h.941a.469.469 0 010 .937zM23.048 13.303h-2.342a.237.237 0 00-.237.237v2.633c0 .131.106.237.237.237h2.342a.237.237 0 00.238-.237v-2.632a.237.237 0 00-.238-.238zm-.694 2.507h-.942a.469.469 0 110-.937h.942a.469.469 0 010 .937zM15.497 23.54h-3.26a.237.237 0 00-.237.237v1.552c0 .78.632 1.413 1.412 1.413h2.085a.237.237 0 00.237-.238v-2.727a.237.237 0 00-.237-.237zm-.695 1.633h-.941a.469.469 0 110-.938h.941a.469.469 0 110 .938zM23.048 20.373h-2.342a.237.237 0 00-.237.237v1.755c0 .13.106.237.237.237h2.342a.237.237 0 00.238-.237V20.61a.237.237 0 00-.238-.237zM15.497 13.303h-2.085c-.78 0-1.412.632-1.412 1.412v1.458c0 .131.106.237.237.237h3.26a.237.237 0 00.237-.237v-2.632a.237.237 0 00-.237-.238zm-.695 2.507h-.941a.469.469 0 110-.937h.941a.469.469 0 010 .937zM26.588 13.303H24.46a.237.237 0 00-.237.237v2.633c0 .131.106.237.238.237h3.302a.237.237 0 00.237-.237v-1.458c0-.78-.632-1.412-1.412-1.412zm-.482 2.507h-.941a.469.469 0 110-.937h.94a.469.469 0 010 .937zM27.763 20.373H24.46a.237.237 0 00-.237.237v1.755c0 .13.106.237.238.237h3.302a.237.237 0 00.237-.237V20.61a.237.237 0 00-.237-.237zM24.445 23.54c-.123 0-.222.099-.222.221v2.76c0 .121.1.22.222.22h2.143c.78 0 1.412-.632 1.412-1.412v-1.79h-3.555z" fill="#000"/></svg>