<svg width="41" height="41" fill="none" xmlns="http://www.w3.org/2000/svg"><g clip-path="url(#clip0)"><path d="M25.64 14.458h-8.835c-.758 0-1.372.614-1.372 1.371v2.285h11.578v-2.286a1.37 1.37 0 00-1.37-1.37z" fill="url(#paint0_linear)"/><path d="M19.45 27.856h-3.06c-.828 0-1.501-.673-1.501-1.5v-11c0-.828.673-1.5 1.5-1.5h9.667c.827 0 1.5.672 1.5 1.5v3.086a.5.5 0 01-1 0v-3.086a.5.5 0 00-.5-.5h-9.667a.5.5 0 00-.5.5v11a.5.5 0 00.5.5h3.06a.5.5 0 010 1z" fill="#000"/><path d="M27.056 18.19H15.389a.5.5 0 010-1h11.667a.5.5 0 010 1zM24.603 21.523h-9.214a.5.5 0 010-1h9.214a.5.5 0 010 1zM21.223 24.856h-5.834a.5.5 0 010-1h5.834a.5.5 0 010 1z" fill="#000"/><path d="M21.223 24.856a.5.5 0 01-.5-.5v-6.667a.5.5 0 011 0v6.667a.5.5 0 01-.5.5z" fill="#000"/><path d="M23.908 26.901c.025.02.06.052.104.093l-.988 1.232c.133.071.27.09.41.054a.725.725 0 00.374-.26.733.733 0 00.171-.564l.385-.015a.85.85 0 01-.024.42c-.043.143-.119.282-.227.417a1.244 1.244 0 01-.468.373.967.967 0 01-.53.077 1.058 1.058 0 01-.503-.229 1.053 1.053 0 01-.33-.432.959.959 0 01-.054-.522c.03-.179.108-.346.232-.5.122-.153.266-.262.43-.327a.89.89 0 01.512-.053c.176.029.345.107.506.236zm-1.154.38a.558.558 0 00.024.753l.714-.891a.555.555 0 00-.392-.078.562.562 0 00-.346.215zM25.6 26.424c-.131.162-.283.28-.455.355a.972.972 0 01-.528.074 1.037 1.037 0 01-.504-.226 1.017 1.017 0 01-.328-.44.979.979 0 01-.045-.53c.036-.183.119-.358.251-.523.124-.154.264-.265.42-.33a.78.78 0 01.482-.048l-.062.415a.557.557 0 00-.298.04.57.57 0 00-.233.176.592.592 0 00-.138.45c.016.16.099.3.248.42.148.12.303.171.464.155a.604.604 0 00.408-.238.596.596 0 00.124-.263.585.585 0 00-.028-.302l.391-.15a.825.825 0 01.06.486c-.03.166-.107.326-.23.479zM25.918 22.766l1.57 1.259-.294.367-1.258-1.009-.472.588.3.265c.2.176.359.336.476.478.117.14.19.276.217.41a.435.435 0 01-.101.374 1.033 1.033 0 01-.195.176l-.295-.265a.44.44 0 00.066-.063.237.237 0 00.046-.238.672.672 0 00-.158-.243 5.653 5.653 0 00-.335-.317l-.585-.512 1.018-1.27zM26.315 22.271l.295-.367 1.035.83-.34-1.698.269-.335 1.57 1.258-.295.368-1.035-.83.342 1.695-.27.338-1.57-1.259z" fill="#1A1A18"/></g><defs><linearGradient id="paint0_linear" x1="18.287" y1="15.181" x2="19.79" y2="19.173" gradientUnits="userSpaceOnUse"><stop stop-color="#FF637B"/><stop offset="1" stop-color="#F90217"/></linearGradient><clipPath id="clip0"><path fill="#fff" transform="translate(14.889 13.825)" d="M0 0h16v16H0z"/></clipPath></defs></svg>