<svg width="41" height="41" fill="none" xmlns="http://www.w3.org/2000/svg"><g clip-path="url(#clip0)"><path d="M25.642 14.427h-8.836c-.757 0-1.37.614-1.37 1.371v2.286h11.576v-2.287a1.37 1.37 0 00-1.37-1.37z" fill="url(#paint0_linear)"/><path d="M30.722 21.525c0 .36-.14.693-.393.947l-1.647 1.646-2.826-2.826 1.646-1.654c.507-.5 1.38-.5 1.887 0l.94.947c.253.253.393.587.393.94z" fill="#FFF5F5"/><path d="M28.683 24.118l-4.714 4.714a.329.329 0 01-.16.093l-3.087.727c-.02.006-.046.006-.073.006a.313.313 0 01-.233-.1.316.316 0 01-.093-.306l.726-3.087a.329.329 0 01.093-.16l4.714-4.713 2.826 2.826z" fill="url(#paint1_linear)"/><path d="M20.648 29.825a.5.5 0 01-.486-.615l.726-3.083a.492.492 0 01.134-.239l6.364-6.364c.566-.566 1.555-.567 2.121 0l.943.943c.283.283.44.66.44 1.06s-.157.778-.44 1.06l-6.364 6.364a.5.5 0 01-.239.133l-3.083.727a.458.458 0 01-.116.014zm1.181-3.33l-.509 2.158 2.159-.509 6.264-6.263a.497.497 0 000-.707l-.943-.942a.5.5 0 00-.708 0l-6.263 6.262zm1.904 2.103h.006-.006z" fill="#000"/><path d="M28.446 24.384a.497.497 0 01-.353-.146l-2.357-2.358a.5.5 0 11.707-.707L28.8 23.53a.5.5 0 01-.354.854zM19.45 27.825h-3.061c-.827 0-1.5-.673-1.5-1.5v-11c0-.827.673-1.5 1.5-1.5h9.667c.827 0 1.5.673 1.5 1.5v3.087a.5.5 0 01-1 0v-3.087a.5.5 0 00-.5-.5h-9.667a.5.5 0 00-.5.5v11a.5.5 0 00.5.5h3.06a.5.5 0 010 1z" fill="#000"/><path d="M27.056 18.158H15.389a.5.5 0 010-1h11.667a.5.5 0 010 1zM24.602 21.491H15.39a.5.5 0 010-1h9.213a.5.5 0 010 1zM21.222 24.825H15.39a.5.5 0 010-1h5.833a.5.5 0 010 1z" fill="#000"/><path d="M21.222 24.825a.5.5 0 01-.5-.5v-6.667a.5.5 0 011 0v6.667a.5.5 0 01-.5.5z" fill="#000"/></g><defs><linearGradient id="paint0_linear" x1="18.288" y1="15.15" x2="19.791" y2="19.142" gradientUnits="userSpaceOnUse"><stop stop-color="#FF637B"/><stop offset="1" stop-color="#F90217"/></linearGradient><linearGradient id="paint1_linear" x1="22.376" y1="22.946" x2="27.511" y2="27.255" gradientUnits="userSpaceOnUse"><stop stop-color="#FF637B"/><stop offset="1" stop-color="#F90217"/></linearGradient><clipPath id="clip0"><path fill="#fff" transform="translate(14.889 13.825)" d="M0 0h16v16H0z"/></clipPath></defs></svg>