<svg width="41" height="41" fill="none" xmlns="http://www.w3.org/2000/svg"><g clip-path="url(#clip0)"><path d="M26.69 22.14l2.334-2.5a.5.5 0 01.865.341v5a.498.498 0 01-.865.342l-2.334-2.5a.5.5 0 010-.683z" fill="url(#paint0_linear)"/><path d="M29.389 25.481a.5.5 0 00.5-.5v-5a.5.5 0 00-.865-.341l-2.334 2.5a.498.498 0 000 .682l2.334 2.5c.096.104.23.16.365.16zm-.5-4.231v2.462l-1.15-1.23 1.15-1.232zM15.056 28.148h10.333c.643 0 1.167-.523 1.167-1.167v-1.666c0-.644-.524-1.167-1.167-1.167H15.056c-.644 0-1.167.523-1.167 1.167v1.666c0 .643.523 1.167 1.167 1.167zm10.333-3c.092 0 .167.075.167.167v1.666a.167.167 0 01-.167.167H15.056a.167.167 0 01-.167-.167v-1.666c0-.093.075-.167.167-.167h10.333zM15.056 20.815h10.333c.643 0 1.167-.524 1.167-1.167v-5c0-.643-.524-1.167-1.167-1.167H15.056c-.644 0-1.167.524-1.167 1.167v5c0 .643.523 1.167 1.167 1.167zm10.333-6.334c.092 0 .167.075.167.167v5a.167.167 0 01-.167.167H15.056a.167.167 0 01-.167-.167v-5c0-.092.075-.167.167-.167h10.333z" fill="#000"/><path d="M20.222 28.148a.5.5 0 00.5-.5v-3a.5.5 0 00-1 0v3a.5.5 0 00.5.5zM20.222 20.815a.5.5 0 00.5-.5V13.98a.5.5 0 00-1 0v6.334a.5.5 0 00.5.5z" fill="#000"/><path d="M14.389 17.648h11.667a.5.5 0 000-1H14.389a.5.5 0 000 1z" fill="#000"/></g><defs><linearGradient id="paint0_linear" x1="29.067" y1="20.667" x2="26.204" y2="22.001" gradientUnits="userSpaceOnUse"><stop stop-color="#FF637B"/><stop offset="1" stop-color="#F90217"/></linearGradient><clipPath id="clip0"><path fill="#fff" transform="matrix(-1 0 0 1 29.889 12.825)" d="M0 0h16v16H0z"/></clipPath></defs></svg>