<svg width="41" height="41" fill="none" xmlns="http://www.w3.org/2000/svg"><g clip-path="url(#clip0)"><path d="M13.51 16.991h14.758v7.667H13.51v-7.667z" fill="url(#paint0_linear)"/><path d="M26.956 28.825H14.822c-.995 0-1.804-.822-1.804-1.833V14.658c0-1.011.809-1.833 1.804-1.833h12.134c.995 0 1.804.822 1.804 1.833v12.334c0 1.01-.809 1.833-1.804 1.833zm-12.134-15a.828.828 0 00-.82.833v12.334c0 .459.368.833.82.833h12.134c.452 0 .82-.374.82-.833V14.658a.828.828 0 00-.82-.833H14.822z" fill="#000"/><path d="M28.268 25.158H13.51a.496.496 0 01-.492-.5c0-.276.22-.5.492-.5h14.758c.272 0 .492.224.492.5s-.22.5-.492.5zM28.268 17.491H13.51a.496.496 0 01-.492-.5c0-.276.22-.5.492-.5h14.758c.272 0 .492.224.492.5s-.22.5-.492.5zM23.84 21.325h-5.903a.496.496 0 01-.492-.5c0-.276.22-.5.492-.5h5.904c.271 0 .491.224.491.5s-.22.5-.491.5z" fill="#000"/><path d="M23.84 23.158a.5.5 0 01-.492-.5v-3.667a.5.5 0 01.305-.461.485.485 0 01.535.108l1.804 1.833a.506.506 0 010 .708l-1.804 1.833a.488.488 0 01-.347.146zm.493-2.96v1.254l.616-.627-.616-.626zM17.937 23.158a.485.485 0 01-.347-.146l-1.804-1.834a.506.506 0 010-.707l1.804-1.833a.486.486 0 01.535-.108.5.5 0 01.304.462v3.666a.5.5 0 01-.492.5zm-1.108-2.333l.616.626v-1.253l-.616.627zM20.889 17.492a.496.496 0 01-.492-.5v-3.667c0-.276.22-.5.492-.5s.492.224.492.5v3.667c0 .276-.22.5-.492.5zM20.889 28.825a.496.496 0 01-.492-.5v-3.667c0-.276.22-.5.492-.5s.492.224.492.5v3.667c0 .276-.22.5-.492.5z" fill="#000"/></g><defs><linearGradient id="paint0_linear" x1="17.147" y1="18.508" x2="21.425" y2="25.414" gradientUnits="userSpaceOnUse"><stop stop-color="#FF637B"/><stop offset="1" stop-color="#F90217"/></linearGradient><clipPath id="clip0"><path fill="#fff" transform="translate(13.018 12.825)" d="M0 0h15.742v16H0z"/></clipPath></defs></svg>