<svg width="553" height="257" viewBox="0 0 553 257" fill="none" xmlns="http://www.w3.org/2000/svg">
<path opacity="0.05" d="M458.676 11.3755C523.894 76.6015 559.816 163.318 559.816 255.557C559.816 256.351 559.168 256.999 558.374 256.999C557.579 256.999 556.931 256.351 556.931 255.557C556.931 66.7359 403.315 -86.8724 214.502 -86.8724C98.1121 -86.8724 3.42793 7.8118 3.42792 124.194C3.42792 195.823 61.704 254.091 133.325 254.091C176.906 254.091 212.674 218.647 213.052 175.073L213.052 174.363C213.06 147.458 191.246 125.644 164.341 125.637L164.333 125.637C148.027 125.668 134.813 138.896 134.798 155.203C134.798 164.999 142.743 172.944 152.539 172.944C158.286 172.936 162.937 168.285 162.945 162.539C162.937 159.299 160.307 156.676 157.067 156.668C156.272 156.668 155.625 156.021 155.625 155.226C155.625 154.432 156.272 153.791 157.067 153.784C161.903 153.791 165.822 157.702 165.83 162.539C165.822 169.874 159.882 175.814 152.547 175.829C141.169 175.821 131.952 166.604 131.936 155.226C131.952 137.307 146.469 122.79 164.387 122.775C192.457 122.814 215.366 145.252 215.983 173.322L215.983 174.387C215.922 219.997 178.943 256.953 133.332 256.984C60.115 256.984 0.550784 197.412 0.550787 124.194C0.550792 6.22281 96.5308 -89.7649 214.51 -89.7649C306.741 -89.7649 393.457 -53.8428 458.676 11.3755Z" fill="#404556"/>
</svg>
