<svg width="553" height="257" viewBox="0 0 553 257" fill="none" xmlns="http://www.w3.org/2000/svg">
<path opacity="0.05" d="M458.676 11.313C523.894 76.539 559.816 163.255 559.816 255.494C559.816 256.289 559.168 256.937 558.374 256.937C557.579 256.937 556.931 256.289 556.931 255.494C556.931 66.6734 403.315 -86.9349 214.502 -86.9349C98.1121 -86.9349 3.42793 7.7493 3.42792 124.132C3.42792 195.76 61.704 254.028 133.325 254.028C176.906 254.028 212.674 218.585 213.052 175.011L213.052 174.301C213.06 147.396 191.246 125.582 164.341 125.574L164.333 125.574C148.027 125.605 134.813 138.834 134.798 155.14C134.798 164.937 142.743 172.882 152.539 172.882C158.286 172.874 162.937 168.223 162.945 162.476C162.937 159.236 160.307 156.614 157.067 156.606C156.272 156.606 155.625 155.958 155.625 155.164C155.625 154.369 156.272 153.729 157.067 153.721C161.903 153.729 165.822 157.64 165.83 162.476C165.822 169.812 159.882 175.751 152.547 175.767C141.169 175.759 131.952 166.541 131.936 155.164C131.952 137.245 146.469 122.728 164.387 122.713C192.457 122.751 215.366 145.19 215.983 173.26L215.983 174.324C215.922 219.934 178.943 256.89 133.332 256.921C60.115 256.921 0.550784 197.349 0.550787 124.132C0.550792 6.16031 96.5308 -89.8274 214.51 -89.8274C306.741 -89.8274 393.457 -53.9053 458.676 11.313Z" fill="white"/>
</svg>
